<?xml version="1.0"?>
<svg id="Layer_1" xmlns="http://www.w3.org/2000/svg" version="1.1" viewBox="0 0 2140 984">
  
  <path d="M1224.77,708.33c-11.59,25.08-29.38,46.76-52.19,62.55-24.21,16.76-51.14,26.88-80.48,29.45-13.74,1.2-27.07,1.5-40.86.24-60.96-5.56-97.83-36.08-100.03-36.42-1.33-.2-3.58,1.4-5.18,2.36-23.51,14.09-48.73,23.57-75.81,28.94l-36.64,5.13c-16.01,2.24-32.17,1.16-48.24,0-17.28-1.24-33.5-4.16-50.14-8.77-22.32-6.17-42.41-17.76-58.25-34.54-21.3-22.56-30.4-50.26-35.93-80.39l-29.28-159.49-24.36-131.7-19.29-106.62c-2.59-14.3-6.42-27.16-13.42-39.69-8.8-15.77-23.3-28.14-41.88-29.96-20.71-2.03-40.34,7.7-52.7,24.01-8.52,11.23-14.46,22.95-20.39,35.83l-57.29,124.37-26.76,59.3-13,28.09-29.01,65-17.4,38.58-18.24,40.76c-7.55,16.87-14.49,33.01-19.06,50.97-10.57,35.7-13.56,75.1-5.76,112.06l-66.05-.11,15.04-32.81,32.97-74.77,30.32-68.75,44.08-99,24.74-54.42,72.52-158.23,29.64-64.55c5.07-11.03,11.93-20.86,19.95-30.07,21.65-24.84,51.12-41.14,83.42-47.43,38.79-7.55,77.53-3.41,112.77,14.17,15.32,7.64,28.58,17.15,40.01,30.14,20.38,23.16,32.83,51.26,38.27,81.68l12.89,72.11,14.4,83.56,11.49,65.62,29.7,161.98,10.66,51.52c3.43,16.56,11.85,31.32,24.64,42.31,20.5,17.61,57.78,17.84,82.09,5.66l23.71-11.87c-27.5-20.67-47.31-49.77-60.97-80.61-9.6-21.67-14.96-44.1-18.23-67.74-3.23-23.41-1.63-45.99,1.7-69.55,7.92-56.08,35.34-107.67,77.22-145.58,29.59-26.78,65.07-44.19,104.36-50.7,24.19-4.01,45.35-4.05,69.65.91,31.41,6.41,60.5,21.97,83.32,44.6,11.04,10.95,19.82,23.07,27.88,36.08,2.51,4.04,3.83,7.5,7.34,11.12l-.44-12.74.27-76.69.89-81.01.55-105.6,140.07.04-.02,157.45-.07,76.13-.12,96.07-.1,212.81.08,89.83-141.26-.84-.25-73.38.15-21.52c-4.66,4.7-5.39,9.06-7.72,14.09ZM1152.34,755.91c46.06-14.9,70.29-64.99,77.65-110.47l2.38-25.09.05-41.17-.19-88.91-1.95-9.46c-5.78-28.09-17.71-53.75-37.93-73.96-16.54-16.53-36.81-25.72-60.16-27.17-20.36-1.27-39.66,4.73-56.21,16.69-20.41,14.74-37.96,41.04-47.58,64.54-7.67,18.74-13.8,37.67-15.86,57.93l-4.25,41.81c-1.7,37.51,4.15,74.79,15.37,110.65,18.38,58.72,64.24,105.47,128.66,84.62Z"></path>
  <path d="M1455.99,539.8l.68-105.52c.09-14.43-7.18-28.79-22.03-31.93-2.71-.57-5.26-1.92-6.4-5.74l8.53-2.59,115.42-37.26,38.41-12.22.08,144.7-.3,162.98-.22,137.72-135.88.23.67-64.06,1.04-186.32Z"></path>
  <path d="M1672.05,468.05l.04-33.97c0-5.47-2.46-12.24-5.11-16.92-4.45-7.87-12.53-11.99-21.07-13.94-1.49-.34-2.94-1.63-3.75-3.54l65.93-20.32,97.79-31.31.19,128.17-.11,117.1-.19,196.64-134.38.26.66-322.17Z"></path>
  <path d="M573.62,778.62c-21.21,9.11-42.58,13.82-65.54,16-46.36,4.4-95.51-4.24-132.95-32.62-26.91-20.39-46.02-47.98-53.99-80.98l-5-23.93c-4.49-21.52,1.83-57.93,10.28-79.41,8.36-21.26,20.12-40.49,35.41-57.49,13.05-14.52,28.35-25.75,44.88-36.03,11.88-7.39,24.3-11.99,37.6-16.47,35.07-11.81,71.64-14.07,107.87-6.73,5.26,1.06,9.84.45,14.71,4.4-4.23,1.65-7.86,1.28-11.77,2.27-45.68,11.59-76.33,50.86-90.02,94.82-13.15,42.26-13.07,87.14,1.71,128.71,10.85,30.53,28.02,55.52,55.81,72.22,14.46,8.68,30.44,12.07,47.26,13.08,1.05.06,2.99,1.28,3.74,2.17Z"></path>
  <path d="M1981.42,476.67c-25.59,22.03-61.25,25.32-89.89,9.78-26.97-14.63-43.23-44.55-40.51-74.89,1.83-20.43,10.49-37.57,25.01-51.11,28.28-26.37,69.61-29.67,100.98-6.34,23.17,17.23,35.56,45.33,30.83,73.98-3.17,19.19-11.99,36.16-26.43,48.58Z"></path>
  <path d="M1538.18,289.59c-23.97,4.09-50-5.74-66.18-24.36-31.09-35.76-23.68-89.1,17.45-114.4,29.66-18.24,72.49-13.39,95.33,14.4,10.42,12.68,17.34,27.4,18.14,43.88,1.94,39.85-25.65,73.81-64.74,80.48Z"></path>
</svg>